<svg width="38" height="45" viewBox="0 0 38 45" fill="none" xmlns="http://www.w3.org/2000/svg">
<path d="M19.67 30.4398L19.0683 25.0406L16.8507 41.5687C16.2488 45.3432 11.1068 44.7887 8.40627 43.9454C8.09924 43.8495 7.81719 43.6978 7.50304 43.6228L6.19654 43.3745C5.51615 43.2324 1.42443 42.3456 1.09152 41.8591C0.797053 41.4289 0.977756 41.021 1.09302 40.5658L6.49152 19.8721L7.37451 14.4489C7.47154 13.5053 7.46005 12.5032 7.40259 11.5603C7.38365 11.2496 7.30677 10.9441 7.30171 10.634L7.2831 6.66591L7.14107 4.76616L7.12799 1.44957C7.12635 1.03162 7.15823 0.709693 7.55976 0.470007L7.59398 0.450076C7.88854 0.275734 9.15974 0.385632 9.55555 0.385463L13.2698 0.385426L30.245 0.391609C30.8491 0.46929 30.8615 1.01872 30.8621 1.45486L30.86 4.54308C30.8591 5.21368 30.7371 5.93002 30.9069 6.52735C31.0588 7.06126 31.0913 7.65807 31.0927 8.21255L30.8171 12.0586L30.8075 14.459C30.8085 14.8897 30.769 15.3656 30.8276 15.7891L31.5519 19.7715C31.5581 19.8117 31.5642 19.8449 31.5772 19.8839L32.3887 23.1557C32.4115 23.2824 32.4618 23.3988 32.4844 23.5256L32.9513 25.3585C32.9965 25.6086 33.0945 25.8536 33.1401 26.1046L33.6295 27.9773C33.6374 28.0161 33.6449 28.0505 33.6574 28.0884L33.9817 29.2852C33.9916 29.328 33.9998 29.3666 34.0141 29.4083L34.1708 29.9502C34.2617 30.3907 34.4332 31.103 34.5769 31.5045L35.2007 33.6563C35.2095 33.698 35.2175 33.7357 35.2317 33.776L35.9102 36.0954C36.0681 36.6239 36.1794 37.1743 36.3442 37.6992C36.4937 38.1756 36.6314 38.7131 36.707 39.2085L37.0652 41.0391C37.0912 41.1847 37.1222 41.4091 37.0742 41.551L37.0641 41.5781C36.8837 42.0698 36.5849 42.0832 36.1514 42.2971C34.2047 43.258 32.0804 43.688 29.9571 44.0624L28.586 44.3204C27.4173 44.5151 25.3575 44.6588 24.149 44.4994C22.6286 44.2988 21.1652 43.2084 20.747 41.7016C20.608 41.2011 20.6219 40.6207 20.5765 40.1039L19.67 30.4398ZM8.70543 1.85844L8.62218 1.86694C8.5559 2.13204 8.59251 2.47377 8.59241 2.74924L8.59349 4.32999L14.7111 4.32943L14.771 4.33951C14.7956 4.15069 14.783 3.9474 14.7837 3.75647L14.7844 2.17936C14.7843 2.08057 14.7975 1.96341 14.7734 1.86778L8.70543 1.85844ZM16.3427 1.85844L16.266 1.8674C16.199 2.19937 16.2285 4.00955 16.2603 4.35357L21.748 4.32943L21.8165 4.33004C21.8624 4.08816 21.8317 3.7943 21.8319 3.54694L21.8316 1.86702L16.3427 1.85844ZM23.4167 1.85965L23.3036 4.32854L29.2774 4.3298L29.3535 1.87032L23.4167 1.85965ZM8.83471 5.8283L8.69924 5.83224C8.6121 6.10688 8.7471 6.54615 8.75357 6.83368L8.75188 8.62688C8.75254 8.89065 8.7396 9.16243 8.76491 9.42507C9.7356 9.27849 11.366 9.18038 12.0994 8.43422C12.9168 7.73466 13.1771 6.90122 13.2685 5.84105L8.83471 5.8283ZM14.7179 5.83487C14.7037 6.08832 14.7049 6.36394 14.6692 6.63933C14.4185 8.57733 13 10.0805 11.1278 10.5602C10.4063 10.7451 9.41498 10.7573 8.81319 10.9348C8.9638 13.1252 8.77991 15.2184 8.41326 17.3812L7.62346 21.3216L2.57498 40.8159L6.67523 41.9963L8.72268 42.5622C9.92376 42.9035 11.1564 43.1465 12.4076 43.1481C14.1244 43.1502 15.1714 43.0381 15.4727 41.0221L16.9985 30.8157L17.6014 24.7433C17.6235 24.4136 17.6128 24.0792 17.6129 23.7489L17.6023 5.85526L14.7179 5.83487ZM24.8172 5.83487L24.7209 5.84012C24.6811 6.23724 24.7834 6.83527 24.9414 7.19162C25.7691 9.05776 27.646 9.40374 29.5117 9.36961L29.5869 9.35058C29.6281 8.56252 29.6394 7.78022 29.5132 6.99915C29.4498 6.60685 29.3316 6.23419 29.2825 5.83758L24.8172 5.83487ZM19.095 5.83772C19.0457 6.20972 19.064 6.58979 19.0638 6.95921L19.0645 14.2126C19.0648 14.83 18.9786 15.1622 19.7617 14.5666L20.0324 14.329C20.5612 13.7522 20.5552 13.199 20.5632 12.4713L20.5483 5.83918L19.095 5.83772ZM22.0475 5.83487C22.0047 6.10477 22.0215 6.38166 22.0229 6.6534L22.0258 11.8924C22.0289 12.6072 22.0461 13.2575 21.8952 13.9581C21.6347 15.1676 20.4111 16.1896 19.1918 16.3156L20.0733 21.5474L20.7264 26.4585L21.9102 38.5313L22.0899 40.2844C22.2231 41.5463 22.2211 42.1692 23.6063 42.7869C25.162 43.4806 29.0571 42.7167 30.6485 42.3976C31.0339 42.3204 31.4391 42.2611 31.8189 42.163L31.8262 42.1597C33.1183 41.8479 34.3902 41.5429 35.5543 40.8741C35.3372 39.6091 34.9991 38.372 34.6541 37.1369L30.6123 22.1133C30.1744 20.3025 29.6369 18.4888 29.4366 16.6321C29.3294 15.6375 29.332 14.6452 29.3317 13.6467L29.4106 10.8724C28.6229 10.8233 27.9897 10.825 27.195 10.6563C24.7834 10.1445 23.2536 8.35599 23.2364 5.83454L22.0475 5.83487Z" fill="#B566CB"/>
</svg>
