<svg width="55" height="55" viewBox="0 0 55 55" fill="none" xmlns="http://www.w3.org/2000/svg">
<path d="M31.0963 46.8651L29.9962 47.6013C27.8175 48.9448 25.6134 49.8445 23.0419 49.8399C17.9096 49.8305 14.0984 45.1576 15.4038 40.1121C15.5549 39.5278 15.8438 38.97 16.1093 38.4301C17.5453 35.5103 19.7506 33.187 22.3496 31.2446L23.8767 30.1652C25.0745 29.3756 28.2551 27.7176 28.3368 26.1372L28.3528 21.3944C28.3523 20.9639 28.2521 20.7032 28.2521 20.1963L28.2344 18.7746L27.9486 15.4625C27.8445 14.7452 27.9055 13.9607 27.9056 13.2354L27.9055 6.16153C27.906 5.67464 28.0819 5.38487 28.5548 5.1885L46.3827 5.17651C46.9008 5.17745 47.3655 5.15754 47.6047 5.73598L47.6176 5.7739C47.7381 6.10621 47.6667 6.54862 47.666 6.90054L47.6661 12.7108C47.6669 13.5334 47.7123 14.3775 47.6723 15.1972C47.6003 16.6747 47.243 18.108 46.9518 19.5515C46.6857 20.8708 46.4472 22.5679 46.3839 23.9207L46.4167 27.3979L46.5299 28.8696C47.0235 33.3136 44.925 37.7603 41.2221 40.281L38.2084 42.1359C37.8598 42.3357 37.482 42.4881 37.1427 42.7026L35.1925 43.9474C34.7634 44.2071 34.3034 44.4277 33.8924 44.7139L31.0963 46.8651ZM29.7192 6.75133L29.5813 6.76148C29.5075 7.04003 29.5408 14.2183 29.5818 14.3123L45.7684 14.3117L46.0039 14.3036L46.0031 6.7625L29.7192 6.75133ZM36.4644 16.0143C36.3132 16.0442 36.1916 16.0769 36.0534 16.1495L36.0163 16.1684C35.7094 16.333 35.5201 16.662 35.251 16.8722C34.8621 17.176 34.1909 17.2398 33.7695 16.9926C33.2297 16.6759 32.8854 15.8688 32.1359 16.0615C31.5708 16.2068 31.3185 16.8371 30.7898 16.9902L30.7552 17.0005C30.4779 17.0763 30.1409 17.0281 29.8613 16.9823L30.0484 20.5891C30.773 21.0255 30.9166 21.0833 31.6448 20.8029C33.136 20.2286 33.3863 21.1327 34.5034 21.5654C35.3367 21.2716 35.8203 20.5589 36.8188 20.6424L36.8668 20.646C37.9612 20.7396 38.243 21.934 39.1826 21.3673C39.6238 21.0621 40.0295 20.7341 40.5737 20.6457C41.7811 20.4496 42.0316 21.3319 42.7918 21.5065C43.035 21.5624 44.2003 20.6569 45.0043 20.5646L45.6655 17.0065C45.3708 16.7611 44.9557 16.2967 44.5511 16.3369C44.1784 16.3739 44.0174 16.6698 43.7325 16.8615C42.0153 18.0177 41.7333 15.6402 40.404 16.0955L40.377 16.1044C40.2847 16.1368 40.2055 16.1983 40.1264 16.2541L40.0908 16.279C39.9292 16.3963 39.8107 16.5728 39.674 16.7175C39.1808 17.2398 38.3305 17.2859 37.77 16.8515C37.2818 16.473 37.1622 16.029 36.4644 16.0143ZM32.3867 22.4377L31.5213 22.7385C31.0259 22.8765 30.5182 22.6946 30.0583 22.5244L30.0483 25.5326C30.0483 25.9631 30.0976 26.4479 30.0093 26.8664L30.0009 26.908C29.6848 28.4239 27.7897 29.749 26.5813 30.5344C23.894 32.2811 21.5893 33.7699 19.5334 36.3227C19.1065 36.8527 18.7349 37.4132 18.3506 37.9727L19.3547 38.434C21.3591 39.4087 23.2086 41.3244 24.0915 43.3984L24.93 45.9541C24.9791 46.244 25.0548 46.5326 25.0881 46.8263L25.1705 47.8661C26.7954 47.4117 28.3415 46.6129 29.7282 45.6589L31.541 44.2907L32.3241 43.6942L31.9059 42.633C31.5782 41.6896 31.2966 40.6591 31.1872 39.6608C31.1145 38.9981 31.0663 38.5714 31.0655 37.8893L31.0662 36.9365C31.0723 34.7621 31.7883 32.5028 32.8981 30.6548C34.5101 27.9706 36.4499 27.0645 39.4611 27.0679C40.7045 27.0693 41.9484 27.209 43.132 27.6013C43.4862 27.7186 43.4795 27.8063 43.8369 27.6898L44.6612 27.4194L44.5985 24.636C44.5989 24.2016 44.5706 23.7458 44.651 23.3177L44.7319 22.5117C43.8911 22.9856 43.3793 23.5116 42.2476 23.1897L42.0759 23.1318C41.5963 22.9551 41.2811 22.6019 40.8578 22.4191C40.4592 22.6235 40.1443 22.9359 39.7192 23.1032L39.6883 23.1156C38.9097 23.4221 37.9708 23.2891 37.2712 22.8405L36.7781 22.5146C36.4818 22.3221 36.3312 22.5837 36.0204 22.7905C35.1682 23.3577 34.1922 23.4863 33.2713 22.9457L32.6594 22.5485C32.5517 22.4769 32.5153 22.4278 32.3867 22.4377ZM39.0851 28.8546C36.3637 28.912 35.1099 29.962 33.9268 32.4428C33.6123 33.1022 33.3411 33.8017 33.1831 34.5165L32.9984 35.3418C32.6653 37.1905 32.6907 39.5484 33.3449 41.3534L33.6684 42.2993C33.7241 42.431 33.76 42.5428 33.8407 42.6653L34.5285 42.2451L36.3489 41.1134C36.4641 41.0395 36.6778 40.948 36.7568 40.8465C36.6375 40.4313 36.5258 40.0275 36.4504 39.6007C35.7935 35.8808 37.3821 31.493 40.4211 29.22L40.803 28.9463C40.3172 28.8139 39.5931 28.806 39.0851 28.8546ZM44.677 29.3127C44.1638 29.4274 43.6296 29.5604 43.1386 29.7487C39.766 31.0425 38.0738 34.5641 38.0875 38.0103C38.089 38.3806 38.0773 38.8039 38.149 39.1666L38.1654 39.2353C38.2158 39.4531 38.2139 39.6851 38.2983 39.8938L38.3238 39.9591C38.4825 39.9437 38.7894 39.7136 38.9372 39.6293C42.7277 37.4685 45.2229 33.8482 44.7933 29.3127C44.7362 29.2975 44.7307 29.2984 44.677 29.3127ZM17.5225 39.6337C17.0611 40.4579 16.7688 42.033 17.0051 42.9899L17.2325 43.9868C18.299 46.9042 20.0698 47.7376 22.8742 48.093L23.4381 48.1265C23.1969 44.3635 21.2315 40.8303 17.5225 39.6337Z" fill="#B566CB"/>
</svg>
