<svg width="60" height="61" viewBox="0 0 60 61" fill="none" xmlns="http://www.w3.org/2000/svg">
<path d="M38.7298 48.9227L17.7092 48.925C16.325 48.9251 16.1867 48.8716 16.1855 47.584L16.158 27.8819C16.016 27.9693 15.856 27.9996 15.7021 28.0613L14.5952 28.5096C14.1288 28.6975 13.6651 28.9593 13.1843 29.1051C12.3986 29.3433 12.1498 28.6881 11.7481 28.1564L6.26111 21.3122C6.17744 21.2045 6.0306 21.0245 6.0033 20.8913L5.99421 20.835C5.9471 20.5513 6.02908 20.3273 6.2614 20.1602L12.1682 16.1961C14.6569 14.4619 14.9066 14.4701 17.9118 13.8386L20.6229 13.1405C21.1402 12.9856 21.6021 12.8113 22.0746 12.5439C22.4749 12.3174 22.8575 11.9517 23.3071 11.8428C23.413 11.8371 23.5098 11.8381 23.6146 11.856L23.6567 11.8635C24.0034 11.9223 24.373 12.3472 24.6605 12.5583C27.5216 14.6592 32.8511 14.4146 35.6391 12.3284C36.1875 11.9181 36.4649 11.6207 37.1701 12.0576C38.4799 12.8691 38.7213 12.9561 40.2508 13.2951L43.0127 13.8959C45.255 14.4049 46.7395 15.4216 48.5777 16.7261L53.7476 20.1308C53.8173 20.1789 53.8764 20.2254 53.9208 20.2987L53.9397 20.332C54.208 20.7843 53.8529 21.1519 53.5788 21.4849L48.876 27.3343L47.834 28.757C47.2621 29.4824 46.6602 29.0097 45.9846 28.7286L43.8184 27.8815C43.7602 28.355 43.7996 28.8721 43.7998 29.35V46.6797C43.7997 47.2099 43.8469 47.7793 43.79 48.3037L43.7852 48.3419C43.721 48.8795 43.1442 48.9214 42.7369 48.9221L38.7298 48.9227ZM22.7273 13.8C22.0076 14.1835 21.3514 14.4182 20.5692 14.6347L17.6948 15.325C15.3629 15.8509 15.2231 15.8933 13.3437 17.1626L8.32882 20.5454C8.1875 20.6416 7.924 20.7609 7.82193 20.8897L13.1153 27.5575L15.351 26.6311C15.9987 26.3525 16.9951 25.5839 17.5173 26.4132L17.5383 26.4459C17.6177 26.5814 17.5886 26.8229 17.5879 26.9783L17.5824 46.025C17.5827 46.4862 17.535 47.0071 17.6132 47.4595L42.3766 47.468L42.3904 47.177L42.3809 27.5518C42.3802 26.9865 42.2359 26.2905 42.9048 26.0465L42.9425 26.0314C43.2532 25.9191 43.7996 26.2837 44.0779 26.3986L46.2858 27.2841C46.3382 27.3051 46.8489 27.5301 46.8591 27.5259C46.9067 27.5063 47.8422 26.2318 47.9905 26.0545L52.1934 20.848L48.3391 18.298C45.7643 16.5753 45.0924 15.821 42.0518 15.1775L40.2162 14.7457C39.1941 14.5021 38.238 14.3074 37.3069 13.7967C36.7477 15.6633 35.6742 17.332 33.9148 18.2875C29.8523 20.4938 24.4756 18.8367 22.8929 14.3529C22.829 14.1718 22.7983 13.9788 22.7273 13.8ZM35.6595 13.9914C35.2507 14.2681 34.78 14.4709 34.3219 14.6522C31.4956 15.7708 27.7388 15.8346 24.9992 14.4084C24.7694 14.2888 24.5605 14.1316 24.3329 14.0075L24.3895 14.206C24.5069 14.6581 24.894 15.2205 25.1794 15.5713C25.9102 16.5117 26.8309 17.1557 27.978 17.4911C31.0482 18.3888 34.5415 17.2144 35.7043 14.0074L35.6595 13.9914Z" fill="#B462A1"/>
<path d="M35.3451 32.0555C34.9723 32.305 34.5927 32.5787 34.1674 32.7318L33.979 32.7965C33.3299 32.9701 32.0603 31.9733 31.5391 31.5696C29.8235 30.2409 28.4875 28.196 29.8183 26.1057C30.3008 25.3477 31.0566 24.9861 31.9074 24.794C32.6044 24.7209 33.143 24.868 33.7145 25.2671L34.0792 25.0305C35.6411 24.2014 37.719 25.4636 38.0506 27.1164C38.4968 29.3399 37.0406 30.8289 35.3451 32.0555ZM32.1956 26.2341C31.6027 26.3101 31.1672 26.6169 30.9087 27.1457L30.8875 27.1874C30.6827 27.599 30.669 28.1085 30.8238 28.5373L30.953 28.8138C31.4716 29.9193 32.723 30.7583 33.7561 31.312C34.177 31.0889 34.6406 30.8127 34.9962 30.4937C35.7369 29.8993 36.5762 29.1556 36.6912 28.1472C36.8252 26.973 35.6394 25.6833 34.4687 26.4519C33.629 27.0032 33.7094 27.0015 32.906 26.4246C32.7181 26.2897 32.4288 26.2123 32.1956 26.2341Z" fill="#B462A1"/>
</svg>
